<svg width="512" height="512" fill="none" xmlns="http://www.w3.org/2000/svg"><path d="M150.82 329.405c0-8.503-5.9-13.574-16.31-13.574-4.251 0-7.13.42-8.636.821v27.281c1.783.402 3.975.535 6.996.535 11.096 0 17.95-5.605 17.95-15.063zm64.443-13.288c-4.662 0-7.674.403-9.456.82v60.42c1.783.418 4.662.418 7.264.418 18.912.134 31.247-10.276 31.247-32.335.133-19.182-11.106-29.323-29.055-29.323z" fill="#000"/><path d="M334.995 0h-205.64C99.313 0 74.862 24.468 74.862 54.493v201.506H69.54c-12.126 0-21.96 9.824-21.96 21.96v133.17c0 12.135 9.833 21.958 21.96 21.958h5.322v24.419c0 30.058 24.451 54.493 54.493 54.493h280.587c30.023 0 54.477-24.436 54.477-54.493V128.971L334.995 0zM105.188 301.991c6.435-1.087 15.48-1.907 28.225-1.907 12.879 0 22.058 2.458 28.226 7.396 5.891 4.654 9.867 12.335 9.867 21.374 0 9.037-3.012 16.72-8.494 21.925-7.13 6.711-17.674 9.724-30.008 9.724-2.745 0-5.206-.136-7.13-.403v33.022h-20.686v-91.131zm304.754 176.636H129.355c-11.632 0-21.105-9.473-21.105-21.121v-24.419h261.565c12.127 0 21.959-9.823 21.959-21.958v-133.17c0-12.136-9.832-21.96-21.959-21.96H108.25V54.493c0-11.615 9.474-21.088 21.105-21.088l193.155-.202V104.6c0 20.855 16.921 37.791 37.791 37.791l69.941-.2.787 315.314c0 11.649-9.456 21.122-21.087 21.122zm-225.097-85.923v-90.713c7.673-1.221 17.673-1.907 28.226-1.907 17.539 0 28.913 3.146 37.824 9.857 9.591 7.13 15.615 18.494 15.615 34.811 0 17.674-6.435 29.875-15.348 37.406-9.724 8.083-24.527 11.917-42.61 11.917-10.83 0-18.502-.686-23.707-1.371zm149.549-53.708v16.987H301.23v37.139h-20.963V300.77h56.453v17.12h-35.49v21.106h33.164z" fill="#000"/></svg>