<svg width="512" height="512" fill="none" xmlns="http://www.w3.org/2000/svg"><path d="M256 256c-35.2 0-64-28.8-64-64s28.8-64 64-64 64 28.8 64 64-28.8 64-64 64zm0-96c-17.6 0-32 14.4-32 32s14.4 32 32 32 32-14.4 32-32-14.4-32-32-32z" fill="#000"/><path d="M256 464c-4.8 0-9.6-1.6-11.2-4.8C238.4 452.8 112 308.8 112 192c0-80 64-144 144-144s144 64 144 144c0 116.8-126.4 260.8-132.8 267.2-1.6 3.2-6.4 4.8-11.2 4.8zm0-384c-62.4 0-112 49.6-112 112 0 84.8 81.6 193.6 112 230.4C286.4 384 368 276.8 368 192c0-62.4-49.6-112-112-112z" fill="#000"/></svg>