<svg width="512" height="512" fill="none" xmlns="http://www.w3.org/2000/svg"><g clip-path="url(#clip0_6_24)"><path d="M256 0C147.855 0 0 81.739 0 256c0 169.827 142.211 256 256 256 195.225 0 256-171.036 256-256C512 130.62 416.05 0 256 0zm-59.364 24.088c-26.708 22.778-48.882 60.473-63.193 107.238-18.545-10.986-35.578-24.592-50.697-40.416 31.245-32.756 70.753-55.735 113.89-66.822zM71.761 103.206c16.932 17.638 36.182 32.655 57.146 44.548-7.861 30.539-12.498 64.403-13.102 99.981H16.731c1.814-53.115 21.165-103.811 55.03-144.529zm0 305.588c-33.966-40.718-53.216-91.414-55.03-144.529h99.074c.604 35.678 5.241 69.442 13.102 99.981a258.38 258.38 0 00-57.146 44.548zm10.986 12.397c15.118-15.824 32.151-29.43 50.696-40.416 14.311 46.664 36.485 84.46 63.193 107.238a241.497 241.497 0 01-113.89-66.822zm164.988 73.675c-42.935-5.442-79.924-53.417-99.88-122.154 30.841-15.622 64.907-24.391 99.88-25.701v147.855zm0-164.283a256.404 256.404 0 00-104.113 25.902c-6.753-28.22-10.784-59.364-11.389-92.22h115.502v66.318zm0-82.848H132.233c.605-32.856 4.636-64 11.389-92.22 32.252 15.723 67.729 24.693 104.113 25.902v66.318zm0-82.746c-35.074-1.209-69.039-10.079-99.88-25.701C167.811 70.45 204.8 22.576 247.735 17.134v147.855zm192.504-61.783c33.865 40.718 53.216 91.414 55.03 144.529h-98.973c-.605-35.678-5.241-69.442-13.102-99.981 20.863-11.993 40.113-26.91 57.045-44.548zm-10.985-12.397c-15.119 15.824-32.152 29.43-50.697 40.416-14.311-46.664-36.485-84.359-63.193-107.238a241.495 241.495 0 01113.89 66.822zM264.265 17.134c42.935 5.442 79.924 53.417 99.88 122.154-30.841 15.622-64.806 24.391-99.88 25.701V17.134zm0 164.283a256.404 256.404 0 00104.113-25.902c6.753 28.22 10.784 59.364 11.389 92.22H264.265v-66.318zm0 82.848h115.502c-.605 32.856-4.636 64-11.389 92.22a253.215 253.215 0 00-104.113-25.902v-66.318zm0 230.601V347.011c35.074 1.209 69.039 10.079 99.88 25.701-19.956 68.838-56.945 116.712-99.88 122.154zm51.099-6.954c26.708-22.778 48.882-60.473 63.193-107.238 18.545 10.986 35.578 24.592 50.697 40.416-31.245 32.756-70.753 55.735-113.89 66.822zm124.875-79.118c-16.932-17.638-36.182-32.555-57.045-44.548 7.861-30.539 12.497-64.403 13.102-99.981h98.973c-1.814 53.115-21.165 103.811-55.03 144.529z" fill="#000"/></g><defs><clipPath id="clip0_6_24"><path fill="#fff" d="M0 0h512v512H0z"/></clipPath></defs></svg>